<?xml version="1.0" ?><!DOCTYPE svg  PUBLIC '-//W3C//DTD SVG 1.1//EN'  'http://www.w3.org/Graphics/SVG/1.1/DTD/svg11.dtd'><svg enable-background="new 0 0 100 100" height="100px" version="1.1" viewBox="0 0 100 100" width="100px" xml:space="preserve" xmlns="http://www.w3.org/2000/svg" xmlns:xlink="http://www.w3.org/1999/xlink"><g id="color_x5F_fill"><path d="M89.488,53.271c-0.023-0.702-0.045-1.405-0.062-2.107c-0.111-4.071-0.162-8.147-0.389-12.218   c-0.221-3.974-1.516-7.648-3.076-11.278c-0.535-1.247-1.859-2.265-3.051-3.026c-1.986-1.268-4.648-1.547-6.93-1.715   c-3.053-0.226-6.115-0.22-9.174-0.298c-3.711-0.094-7.426,0.263-11.125,0.033c-3.695-0.231-7.449-0.248-11.152-0.26   c-4.26-0.013-8.516,0.112-12.773,0.164c-2.098,0.024-4.199,0.032-6.299-0.004c-1.762-0.032-4.828,0.155-6.473,0.83   c-3.287,1.347-4.182,2.835-5.951,6.006c-0.91,1.63-1.264,3.44-1.381,5.318c-0.115,1.873-0.961,3.636-0.91,5.496   c0.078,2.886-0.271,5.751-0.266,8.632c0.016,7.754-0.053,15.572,3.279,22.671l0.771,1.351c0.535,0.718,0.736,1.678,1.357,2.295   c1.271,1.27,3.812,1.516,5.492,1.722c2.096,0.257,4.213,0.262,6.316,0.433c3.465,0.281,7.092-0.09,10.561,0.084   c3.484,0.174,6.93,0.252,10.422,0.161c8.5-0.224,16.975,0.353,25.467-0.263c3.492-0.253,7.865,0.516,10.404-2.404   c2.342-2.696,3.256-6.265,3.979-9.677C89.352,61.308,89.627,57.264,89.488,53.271z M58.922,54.223   c-1.195,0.809-2.492,1.441-3.742,2.154c-2.543,1.452-4.986,3.15-7.469,4.713c-0.646,0.406-5.502,2.758-5.502,2.758   c0.066-2.025,0.02-3.875-0.051-5.812c-0.074-2.032,0.016-4.063-0.016-6.096c-0.02-1.214-0.01-10.899-0.014-12.782   c-0.002-0.325,0-2.677,0-3.264c0.621,0.397,1.477,0.805,2.084,1.22c1.143,0.777,2.266,1.577,3.4,2.374   c1.188,0.833,2.459,1.503,3.713,2.225c2.521,1.45,4.596,3.507,7.186,4.851c2.025,1.051,3.906,2.292,5.848,3.478   C64.215,49.951,60.006,53.486,58.922,54.223z" fill="#C12025"/></g><g id="offset_x5F_print_x5F_outline"/></svg>